<svg xmlns="http://www.w3.org/2000/svg" xmlns:xlink="http://www.w3.org/1999/xlink" width="64" zoomAndPan="magnify" viewBox="0 0 48 48" height="64" preserveAspectRatio="xMidYMid meet" version="1.0"><defs><clipPath id="f941942263"><path d="M 2.722656 0 L 44.601562 0 L 44.601562 46.285156 L 2.722656 46.285156 Z M 2.722656 0 " clip-rule="nonzero"/></clipPath><clipPath id="8f27c70a86"><path d="M 2.722656 0 L 44 0 L 44 35 L 2.722656 35 Z M 2.722656 0 " clip-rule="nonzero"/></clipPath><clipPath id="bc0352269b"><path d="M 23 11 L 44.601562 11 L 44.601562 35 L 23 35 Z M 23 11 " clip-rule="nonzero"/></clipPath></defs><g clip-path="url(#f941942263)"><path fill="#283593" d="M 22.460938 0.421875 C 23.203125 0.00390625 24.121094 0.00390625 24.863281 0.421875 C 28.542969 2.488281 39.617188 8.707031 43.296875 10.769531 C 44.039062 11.1875 44.5 11.960938 44.5 12.796875 C 44.5 16.925781 44.5 29.359375 44.5 33.488281 C 44.5 34.324219 44.039062 35.097656 43.296875 35.515625 C 39.617188 37.582031 28.542969 43.796875 24.863281 45.863281 C 24.121094 46.28125 23.203125 46.28125 22.460938 45.863281 C 18.78125 43.796875 7.707031 37.582031 4.027344 35.515625 C 3.285156 35.097656 2.824219 34.324219 2.824219 33.492188 C 2.824219 29.359375 2.824219 16.925781 2.824219 12.796875 C 2.824219 11.960938 3.285156 11.1875 4.027344 10.769531 C 7.707031 8.707031 18.78125 2.488281 22.460938 0.421875 Z M 22.460938 0.421875 " fill-opacity="1" fill-rule="evenodd"/></g><g clip-path="url(#8f27c70a86)"><path fill="#5c6bc0" d="M 3.160156 34.554688 C 2.867188 34.164062 2.824219 33.792969 2.824219 33.292969 C 2.824219 29.1875 2.824219 16.828125 2.824219 12.71875 C 2.824219 11.886719 3.28125 11.121094 4.023438 10.703125 C 7.691406 8.652344 18.726562 2.472656 22.390625 0.417969 C 23.132812 0 24.140625 0.0117188 24.882812 0.425781 C 28.546875 2.480469 39.546875 8.605469 43.210938 10.660156 C 43.507812 10.828125 43.734375 11.027344 43.9375 11.292969 Z M 3.160156 34.554688 " fill-opacity="1" fill-rule="evenodd"/></g><path fill="#ffffff" d="M 23.660156 7.789062 C 32.136719 7.789062 39.015625 14.667969 39.015625 23.144531 C 39.015625 31.617188 32.136719 38.5 23.660156 38.5 C 15.1875 38.5 8.308594 31.617188 8.308594 23.144531 C 8.308594 14.667969 15.1875 7.789062 23.660156 7.789062 Z M 23.660156 15.464844 C 27.898438 15.464844 31.339844 18.90625 31.339844 23.144531 C 31.339844 27.378906 27.898438 30.820312 23.660156 30.820312 C 19.425781 30.820312 15.984375 27.378906 15.984375 23.144531 C 15.984375 18.90625 19.425781 15.464844 23.660156 15.464844 Z M 23.660156 15.464844 " fill-opacity="1" fill-rule="evenodd"/><g clip-path="url(#bc0352269b)"><path fill="#3949ab" d="M 43.933594 11.300781 C 44.5 11.832031 44.488281 12.632812 44.488281 13.257812 C 44.488281 17.421875 44.453125 29.261719 44.5 33.421875 C 44.503906 33.859375 44.359375 34.316406 44.144531 34.660156 L 23.214844 23.144531 Z M 43.933594 11.300781 " fill-opacity="1" fill-rule="evenodd"/></g></svg>