<svg xmlns="http://www.w3.org/2000/svg" xmlns:xlink="http://www.w3.org/1999/xlink" width="64" zoomAndPan="magnify" viewBox="0 0 48 48" height="64" preserveAspectRatio="xMidYMid meet" version="1.0"><defs><clipPath id="acade13db4"><path d="M 3.226562 0 L 45.101562 0 L 45.101562 47 L 3.226562 47 Z M 3.226562 0 " clip-rule="nonzero"/></clipPath><clipPath id="042e1df7e8"><path d="M 3.226562 23 L 45 23 L 45 47 L 3.226562 47 Z M 3.226562 23 " clip-rule="nonzero"/></clipPath><clipPath id="8f3910a508"><path d="M 24 11 L 45.101562 11 L 45.101562 36 L 24 36 Z M 24 11 " clip-rule="nonzero"/></clipPath></defs><g clip-path="url(#acade13db4)"><path fill="#5c8dbc" d="M 45.039062 13.925781 C 45.039062 13.144531 44.871094 12.453125 44.527344 11.859375 C 44.191406 11.273438 43.691406 10.785156 43.019531 10.398438 C 37.457031 7.21875 31.894531 4.046875 26.335938 0.863281 C 24.839844 0.0078125 23.386719 0.0390625 21.898438 0.90625 C 19.6875 2.203125 8.609375 8.5 5.308594 10.394531 C 3.949219 11.175781 3.285156 12.371094 3.285156 13.925781 C 3.285156 20.320312 3.285156 26.714844 3.285156 33.109375 C 3.285156 33.875 3.445312 34.554688 3.773438 35.136719 C 4.109375 35.738281 4.617188 36.242188 5.304688 36.640625 C 8.605469 38.535156 19.6875 44.832031 21.898438 46.125 C 23.386719 46.996094 24.839844 47.027344 26.339844 46.167969 C 31.894531 42.984375 37.460938 39.816406 43.019531 36.636719 C 43.710938 36.242188 44.21875 35.738281 44.554688 35.136719 C 44.878906 34.554688 45.042969 33.875 45.042969 33.105469 C 45.042969 33.105469 45.042969 20.320312 45.039062 13.925781 " fill-opacity="1" fill-rule="nonzero"/></g><g clip-path="url(#042e1df7e8)"><path fill="#1a4674" d="M 24.226562 23.457031 L 3.773438 35.136719 C 4.109375 35.738281 4.617188 36.242188 5.304688 36.640625 C 8.605469 38.535156 19.6875 44.832031 21.898438 46.125 C 23.386719 46.996094 24.839844 47.027344 26.339844 46.167969 C 31.894531 42.984375 37.460938 39.816406 43.019531 36.636719 C 43.710938 36.242188 44.21875 35.738281 44.554688 35.136719 L 24.226562 23.457031 " fill-opacity="1" fill-rule="nonzero"/></g><path fill="#1a4674" d="M 18.167969 26.914062 C 19.359375 28.976562 21.597656 30.367188 24.164062 30.367188 C 26.746094 30.367188 28.996094 28.960938 30.179688 26.875 L 24.226562 23.457031 L 18.167969 26.914062 " fill-opacity="1" fill-rule="nonzero"/><g clip-path="url(#8f3910a508)"><path fill="#1b598e" d="M 45.039062 13.925781 C 45.039062 13.144531 44.871094 12.453125 44.527344 11.859375 L 24.226562 23.457031 L 44.554688 35.136719 C 44.878906 34.554688 45.042969 33.875 45.042969 33.105469 C 45.042969 33.105469 45.042969 20.320312 45.039062 13.925781 " fill-opacity="1" fill-rule="nonzero"/></g><path fill="#ffffff" d="M 43.921875 24.289062 L 42.335938 24.289062 L 42.335938 25.867188 L 40.746094 25.867188 L 40.746094 24.289062 L 39.15625 24.289062 L 39.15625 22.714844 L 40.746094 22.714844 L 40.746094 21.140625 L 42.335938 21.140625 L 42.335938 22.714844 L 43.921875 22.714844 L 43.921875 24.289062 " fill-opacity="1" fill-rule="nonzero"/><path fill="#ffffff" d="M 38.125 24.289062 L 36.539062 24.289062 L 36.539062 25.867188 L 34.949219 25.867188 L 34.949219 24.289062 L 33.359375 24.289062 L 33.359375 22.714844 L 34.949219 22.714844 L 34.949219 21.140625 L 36.539062 21.140625 L 36.539062 22.714844 L 38.125 22.714844 L 38.125 24.289062 " fill-opacity="1" fill-rule="nonzero"/><path fill="#ffffff" d="M 30.179688 26.875 C 28.996094 28.960938 26.746094 30.367188 24.164062 30.367188 C 21.597656 30.367188 19.359375 28.976562 18.167969 26.914062 C 17.589844 25.914062 17.257812 24.753906 17.257812 23.515625 C 17.257812 19.734375 20.347656 16.667969 24.164062 16.667969 C 26.714844 16.667969 28.9375 18.039062 30.132812 20.082031 L 36.167969 16.632812 C 33.769531 12.523438 29.292969 9.761719 24.164062 9.761719 C 16.503906 9.761719 10.296875 15.917969 10.296875 23.515625 C 10.296875 26.007812 10.964844 28.347656 12.132812 30.363281 C 14.523438 34.492188 19.015625 37.273438 24.164062 37.273438 C 29.320312 37.273438 33.816406 34.480469 36.207031 30.339844 L 30.179688 26.875 " fill-opacity="1" fill-rule="nonzero"/></svg>