<svg xmlns="http://www.w3.org/2000/svg" xmlns:xlink="http://www.w3.org/1999/xlink" width="64" zoomAndPan="magnify" viewBox="0 0 48 48" height="64" preserveAspectRatio="xMidYMid meet" version="1.0"><defs><clipPath id="1ccb5ede12"><path d="M 2 0 L 45.335938 0 L 45.335938 46.285156 L 2 46.285156 Z M 2 0 " clip-rule="nonzero"/></clipPath></defs><g clip-path="url(#1ccb5ede12)"><path fill="#00aeef" d="M 33.582031 32.632812 C 34.378906 34.472656 34.160156 36.390625 34.171875 38.28125 C 34.1875 40.167969 34.183594 42.058594 34.171875 43.945312 C 34.160156 45.347656 33.03125 46.285156 31.726562 46 C 30.820312 45.800781 30.179688 45.007812 30.179688 44.03125 C 30.171875 41.363281 30.164062 38.695312 30.191406 36.027344 C 30.203125 34.699219 29.8125 33.542969 28.914062 32.566406 C 28.335938 31.9375 28.125 31.222656 28.433594 30.414062 C 28.734375 29.628906 29.347656 29.265625 30.171875 29.113281 C 31.683594 28.832031 33.21875 28.589844 34.679688 28.121094 C 38.050781 27.039062 40.023438 24.632812 40.742188 21.203125 C 41.183594 19.101562 41.386719 16.976562 40.847656 14.855469 C 40.5 13.484375 39.851562 12.261719 38.886719 11.230469 C 38.183594 10.480469 38.015625 9.679688 38.363281 8.703125 C 38.882812 7.246094 38.9375 5.75 38.554688 4.152344 C 38.027344 4.332031 37.507812 4.445312 37.046875 4.675781 C 35.882812 5.269531 34.71875 5.867188 33.605469 6.550781 C 32.859375 7.007812 32.148438 7.144531 31.300781 6.925781 C 27.21875 5.871094 23.132812 5.871094 19.042969 6.929688 C 18.214844 7.144531 17.5 7.039062 16.785156 6.554688 C 15.390625 5.609375 13.921875 4.792969 12.289062 4.308594 C 12.144531 4.265625 11.996094 4.234375 11.8125 4.191406 C 11.507812 5.308594 11.484375 6.402344 11.691406 7.5 C 11.78125 7.984375 11.929688 8.464844 12.078125 8.9375 C 12.320312 9.703125 12.21875 10.402344 11.675781 10.988281 C 9.898438 12.910156 9.105469 15.179688 9.210938 17.785156 C 9.28125 19.585938 9.5 21.359375 10.171875 23.046875 C 11.261719 25.785156 13.335938 27.445312 16.082031 28.28125 C 17.375 28.671875 18.714844 28.910156 20.050781 29.140625 C 21.402344 29.371094 22.203125 30.203125 22.023438 31.429688 C 21.964844 31.820312 21.765625 32.242188 21.5 32.542969 C 20.550781 33.617188 20.148438 34.839844 20.167969 36.269531 C 20.207031 38.84375 20.1875 41.417969 20.179688 43.992188 C 20.175781 45.175781 19.328125 46.046875 18.210938 46.0625 C 17.085938 46.074219 16.21875 45.183594 16.207031 43.980469 C 16.195312 42.859375 16.207031 41.738281 16.207031 40.679688 C 15.183594 40.679688 14.207031 40.730469 13.234375 40.667969 C 10.914062 40.515625 8.984375 39.503906 7.410156 37.828125 C 6.699219 37.066406 6.058594 36.238281 5.390625 35.429688 C 4.84375 34.765625 4.269531 34.175781 3.402344 33.875 C 2.4375 33.542969 1.996094 32.398438 2.332031 31.429688 C 2.671875 30.4375 3.703125 29.890625 4.726562 30.152344 C 6.046875 30.492188 7.078125 31.273438 7.953125 32.285156 C 8.585938 33.015625 9.191406 33.769531 9.789062 34.527344 C 11.460938 36.65625 13.644531 37.097656 16.148438 36.5 C 16.195312 35.832031 16.203125 35.175781 16.296875 34.535156 C 16.390625 33.90625 16.578125 33.292969 16.726562 32.660156 C 16.015625 32.441406 15.265625 32.242188 14.539062 31.988281 C 9.199219 30.128906 6.300781 26.28125 5.476562 20.78125 C 5.152344 18.613281 5.042969 16.4375 5.542969 14.269531 C 5.941406 12.546875 6.652344 10.96875 7.707031 9.546875 C 7.886719 9.300781 7.953125 9.085938 7.882812 8.78125 C 7.320312 6.304688 7.523438 3.886719 8.46875 1.535156 C 8.859375 0.558594 9.507812 0.164062 10.554688 0.113281 C 13.019531 0 15.175781 0.945312 17.199219 2.160156 C 18.171875 2.742188 19.03125 2.847656 20.113281 2.632812 C 23.816406 1.898438 27.527344 2.003906 31.210938 2.796875 C 31.636719 2.890625 31.964844 2.847656 32.339844 2.617188 C 34.167969 1.5 36.074219 0.53125 38.21875 0.191406 C 38.875 0.0898438 39.5625 0.0898438 40.222656 0.148438 C 41.015625 0.21875 41.558594 0.699219 41.859375 1.441406 C 42.832031 3.835938 43.050781 6.292969 42.496094 8.824219 C 42.453125 9.019531 42.5 9.296875 42.617188 9.457031 C 44.566406 12.128906 45.328125 15.128906 45.128906 18.40625 C 44.996094 20.582031 44.660156 22.710938 43.808594 24.734375 C 42.195312 28.558594 39.273438 30.898438 35.382812 32.125 C 34.804688 32.308594 34.21875 32.453125 33.582031 32.632812 Z M 33.582031 32.632812 " fill-opacity="1" fill-rule="nonzero"/></g></svg>