<svg xmlns="http://www.w3.org/2000/svg" xmlns:xlink="http://www.w3.org/1999/xlink" width="64" zoomAndPan="magnify" viewBox="0 0 48 48" height="64" preserveAspectRatio="xMidYMid meet" version="1.0"><defs><clipPath id="789a84f209"><path d="M 5.191406 16 L 13 16 L 13 31 L 5.191406 31 Z M 5.191406 16 " clip-rule="nonzero"/></clipPath><clipPath id="a4096ccb99"><path d="M 31 16 L 42.660156 16 L 42.660156 31 L 31 31 Z M 31 16 " clip-rule="nonzero"/></clipPath></defs><g clip-path="url(#789a84f209)"><path fill="#0b395e" d="M 12.5 18.457031 L 12.5 17.027344 C 12.5 16.632812 12.179688 16.3125 11.785156 16.3125 L 6.074219 16.3125 C 5.679688 16.3125 5.359375 16.632812 5.359375 17.027344 L 5.359375 18.457031 C 5.359375 18.851562 5.679688 19.171875 6.074219 19.171875 L 7.5 19.171875 L 7.5 27.75 L 6.074219 27.75 C 5.679688 27.75 5.359375 28.070312 5.359375 28.464844 L 5.359375 29.894531 C 5.359375 30.289062 5.679688 30.609375 6.074219 30.609375 L 11.785156 30.609375 C 12.179688 30.609375 12.5 30.289062 12.5 29.894531 L 12.5 28.464844 C 12.5 28.070312 12.179688 27.75 11.785156 27.75 L 10.355469 27.75 L 10.355469 19.171875 L 11.785156 19.171875 C 12.179688 19.171875 12.5 18.851562 12.5 18.457031 Z M 12.5 18.457031 " fill-opacity="1" fill-rule="nonzero"/></g><path fill="#0b395e" d="M 21.777344 16.3125 C 17.839844 16.3125 14.640625 19.515625 14.640625 23.460938 C 14.640625 27.40625 17.839844 30.609375 21.777344 30.609375 C 25.71875 30.609375 28.917969 27.40625 28.917969 23.460938 C 28.917969 19.515625 25.71875 16.3125 21.777344 16.3125 Z M 21.777344 27.75 C 19.414062 27.75 17.496094 25.828125 17.496094 23.460938 C 17.496094 21.09375 19.414062 19.171875 21.777344 19.171875 C 24.140625 19.171875 26.0625 21.09375 26.0625 23.460938 C 26.0625 25.828125 24.140625 27.75 21.777344 27.75 Z M 21.777344 27.75 " fill-opacity="1" fill-rule="nonzero"/><g clip-path="url(#a4096ccb99)"><path fill="#0b395e" d="M 41.769531 16.3125 L 31.773438 16.3125 C 31.378906 16.3125 31.058594 16.632812 31.058594 17.027344 L 31.058594 18.457031 C 31.058594 18.851562 31.378906 19.171875 31.773438 19.171875 L 35.34375 19.171875 L 35.34375 29.894531 C 35.34375 30.289062 35.664062 30.609375 36.058594 30.609375 L 37.484375 30.609375 C 37.878906 30.609375 38.199219 30.289062 38.199219 29.894531 L 38.199219 19.171875 L 41.769531 19.171875 C 42.164062 19.171875 42.484375 18.851562 42.484375 18.457031 L 42.484375 17.027344 C 42.484375 16.632812 42.164062 16.3125 41.769531 16.3125 Z M 41.769531 16.3125 " fill-opacity="1" fill-rule="nonzero"/></g><path fill="#00b7ef" d="M 17.171875 11.550781 C 19.824219 9.308594 23.746094 9.367188 26.386719 11.558594 C 26.648438 11.777344 27.039062 11.742188 27.28125 11.5 L 28.347656 10.433594 C 28.632812 10.148438 28.601562 9.6875 28.296875 9.421875 C 24.558594 6.199219 19 6.199219 15.261719 9.421875 C 14.957031 9.6875 14.925781 10.148438 15.210938 10.433594 L 16.273438 11.496094 C 16.515625 11.738281 16.910156 11.773438 17.171875 11.550781 Z M 17.171875 11.550781 " fill-opacity="1" fill-rule="nonzero"/><path fill="#00b7ef" d="M 19.84375 14.359375 L 18.769531 13.28125 C 18.472656 12.988281 18.507812 12.492188 18.84375 12.246094 C 20.589844 10.976562 22.96875 10.976562 24.714844 12.246094 C 25.050781 12.492188 25.085938 12.988281 24.789062 13.28125 L 23.71875 14.355469 C 23.488281 14.585938 23.140625 14.601562 22.859375 14.4375 C 22.210938 14.0625 21.367188 14.0625 20.699219 14.449219 C 20.417969 14.609375 20.074219 14.589844 19.847656 14.359375 Z M 19.84375 14.359375 " fill-opacity="1" fill-rule="nonzero"/><path fill="#00b7ef" d="M 11.683594 6.640625 C 17.398438 1.425781 26.160156 1.425781 31.871094 6.640625 C 32.15625 6.898438 32.15625 7.351562 31.886719 7.621094 L 30.828125 8.683594 C 30.566406 8.941406 30.15625 8.941406 29.878906 8.695312 C 25.347656 4.65625 18.28125 4.5625 13.675781 8.691406 C 13.402344 8.9375 12.992188 8.941406 12.730469 8.679688 L 11.671875 7.621094 C 11.402344 7.351562 11.402344 6.898438 11.683594 6.640625 Z M 11.683594 6.640625 " fill-opacity="1" fill-rule="nonzero"/><path fill="#00b7ef" d="M 17.171875 35.367188 C 19.824219 37.613281 23.746094 37.550781 26.386719 35.359375 C 26.648438 35.144531 27.039062 35.175781 27.28125 35.417969 L 28.347656 36.484375 C 28.632812 36.769531 28.601562 37.234375 28.296875 37.496094 C 24.558594 40.722656 19 40.722656 15.261719 37.496094 C 14.957031 37.234375 14.925781 36.769531 15.210938 36.484375 L 16.273438 35.421875 C 16.515625 35.179688 16.910156 35.144531 17.171875 35.367188 Z M 17.171875 35.367188 " fill-opacity="1" fill-rule="nonzero"/><path fill="#00b7ef" d="M 19.84375 32.558594 L 18.769531 33.636719 C 18.472656 33.933594 18.507812 34.429688 18.84375 34.675781 C 20.589844 35.945312 22.96875 35.945312 24.714844 34.675781 C 25.050781 34.429688 25.085938 33.933594 24.789062 33.636719 L 23.71875 32.566406 C 23.488281 32.335938 23.140625 32.320312 22.859375 32.484375 C 22.210938 32.855469 21.367188 32.859375 20.699219 32.472656 C 20.417969 32.3125 20.074219 32.332031 19.847656 32.558594 Z M 19.84375 32.558594 " fill-opacity="1" fill-rule="nonzero"/><path fill="#00b7ef" d="M 11.683594 40.28125 C 17.398438 45.496094 26.160156 45.496094 31.871094 40.28125 C 32.15625 40.019531 32.15625 39.570312 31.886719 39.296875 L 30.828125 38.238281 C 30.566406 37.976562 30.15625 37.980469 29.878906 38.222656 C 25.347656 42.261719 18.28125 42.355469 13.675781 38.226562 C 13.402344 37.980469 12.992188 37.980469 12.730469 38.238281 L 11.671875 39.296875 C 11.402344 39.570312 11.402344 40.019531 11.683594 40.277344 Z M 11.683594 40.28125 " fill-opacity="1" fill-rule="nonzero"/></svg>